<?xml version="1.0" encoding="UTF-8"?>
<svg id="Layer_2" xmlns="http://www.w3.org/2000/svg" viewBox="0 0 983.49 983.49">
  <defs>
    <style>
      .cls-1 {
        fill: #02216f;
      }
    </style>
  </defs>
  <g id="Layer_1-2" data-name="Layer_1">
    <g>
      <path class="cls-1" d="M294.93,696.64c-.16,19.57-17.25,36.47-36.74,36.34-20.01-.14-36.16-16.52-36.15-36.66.02-20.35,15.91-36.29,36.22-36.34,20.37-.06,36.83,16.4,36.67,36.66Z"/>
      <path class="cls-1" d="M292.9,633.93c4.46,5.67,9.91,12.58,15.36,19.5-3.65,3.69-7.74,7.82-11.51,11.62-6.89-4.98-13.87-10.02-21.91-15.82,5.98-5.07,12.16-10.31,18.06-15.3Z"/>
      <path class="cls-1" d="M319.63,603.95c6.16,7.75,11.79,14.83,16.99,21.38-5.84,6.27-11.87,12.75-18.11,19.46-7.61-5.18-12.56-11.92-15.67-20.03-.46-1.2.1-3.42,1.02-4.42,5.12-5.59,10.49-10.96,15.77-16.39Z"/>
      <path class="cls-1" d="M279.93,251.1c19.25,1.68,37.76,3.28,56.98,4.95-1.95,15.6-3.85,30.78-5.78,46.27-15.42,1.92-30.45,3.8-46.19,5.76-1.67-19-3.3-37.51-5.01-56.98Z"/>
      <path class="cls-1" d="M341.74,582.45c2.46,11.35,10.01,21.45,4.92,33.16-.7.39-1.41.79-2.11,1.19-4.55-6.45-9.21-12.82-13.56-19.4-.67-1.02-.47-3.45.31-4.43,3.06-3.81,6.51-7.3,10.44-10.52Z"/>
      <path class="cls-1" d="M316.69,512.16c31.96,32,63.27,63.35,94.78,94.91-.12.13-1.09,1.3-2.17,2.35-10.63,10.36-12.37,10.36-22.67.06-24.43-24.42-48.85-48.84-73.27-73.27-8.61-8.62-8.58-11.18-.13-19.73,1.47-1.48,2.63-3.27,3.46-4.32Z"/>
      <path class="cls-1" d="M410.92,490.49c6.18,7.17,13.23,15.35,19.92,23.11-15.59,15.48-30.95,30.73-46.44,46.11-6.85-6.91-14.34-14.46-21.3-21.46,15.59-15.56,31.57-31.53,47.82-47.76Z"/>
      <path class="cls-1" d="M573.19,535.91c-75.48-75.47-150.94-150.97-226.51-226.36-3.05-3.04-3.89-5.77-3.22-10.01,1.8-11.43,2.95-22.96,4.42-34.91,86.78,86.76,172.89,172.85,259.29,259.23-9.46,5.24-19.26,10.66-29.45,16.3-1.55-1.46-3.09-2.81-4.53-4.25Z"/>
      <path class="cls-1" d="M525.21,421.69c-8.09-8.11-15.71-15.74-22.79-22.84,43.82-43.82,88.51-88.52,133.32-133.34,1.23,9.76,1.92,20.21,4.05,30.35,1.59,7.63-1.2,12.14-6.34,17.22-35.04,34.62-69.77,69.54-104.58,104.39-1.48,1.48-2.75,3.17-3.66,4.22Z"/>
      <path class="cls-1" d="M652.85,597.01c-4.49,6.67-9.18,13.21-14.23,20.38-4.76-8.56-4.58-10.36,2.92-35.39,4.02,4.05,7.75,7.63,11.21,11.45.62.69.66,2.73.1,3.56Z"/>
      <path class="cls-1" d="M666.18,512.49l-.02.02s-.02-.02-.03-.03c-.01,0-.03-.02-.04-.03.03.01.06.02.09.04Z"/>
      <path class="cls-1" d="M667.12,539.48c-25.12,24.5-49.82,49.43-74.42,74.45-4.11,4.19-7.53,4.54-11.78,1.29-3.45-2.64-6.71-5.53-9.57-7.92,31.7-31.7,63.06-63.04,94.81-94.79,12.21,11.35,14.65,13.61.96,26.97Z"/>
      <path class="cls-1" d="M680.68,624.86c-3.07,7.98-8.02,14.58-15.39,19.75-6.12-6.65-12.14-13.19-18.05-19.62,4.95-6.25,10.58-13.36,16.68-21.07,5.13,5.28,10.63,10.77,15.88,16.51.89.97,1.35,3.21.88,4.43Z"/>
      <path class="cls-1" d="M709.07,649.09c-8.07,5.73-15.09,10.72-22.65,16.09-3.38-3.64-7.32-7.89-11.03-11.9,5.23-6.63,10.6-13.42,15.49-19.62,5.9,5.01,12.09,10.26,18.19,15.43Z"/>
      <path class="cls-1" d="M652.45,302.31c-1.92-15.26-3.84-30.46-5.82-46.17,19.03-1.68,37.56-3.31,56.99-5.02-1.69,19.25-3.3,37.76-4.98,56.93-15.51-1.93-30.55-3.8-46.19-5.74Z"/>
      <path class="cls-1" d="M761.9,696.04c.15,19.51-17.35,37.03-36.92,36.94-19.67-.09-36.39-16.93-36.35-36.63.03-19.64,16.84-36.5,36.45-36.58,19.61-.07,36.67,16.73,36.82,36.27Z"/>
      <path class="cls-1" d="M491.74,0C220.16,0,0,220.17,0,491.75s220.16,491.74,491.74,491.74,491.75-220.16,491.75-491.74S763.33,0,491.74,0ZM773.57,697.43c-.88,25.32-20.87,46.06-45.64,47.34-24.74,1.28-48.25-17.09-50.21-41.27-.77-9.46-5.73-13.4-11.57-18.96-20.06-19.08-39.36-38.97-58.92-58.58-1.48-1.48-2.72-3.2-4.77-5.65-3.92,4.13-7.22,7.72-10.64,11.18-6.99,7.07-13.97,14.13-21.08,21.06-9.64,9.41-21.45,9.42-31.02.12-3.42-3.32-6.78-6.72-10.12-10.12-4.99-5.08-4.98-7.21.18-12.4,7.93-8,15.93-15.94,23.89-23.92,1.32-1.33,2.57-2.73,3.77-4.01-22.22-22.26-43.92-43.99-65.19-65.29-21.59,21.62-43.39,43.45-66.57,66.66,3.48,3.02,7.89,6.57,11.99,10.47,5.81,5.52,11.37,11.31,17.07,16.96,3.69,3.66,3.75,7.2-.05,10.85-3.71,3.58-7.26,7.33-10.97,10.91-9.38,9.1-21.21,9.19-30.59.05-9.16-8.93-18.16-18.04-27.14-27.15-1.46-1.49-2.48-3.42-4.32-6.01-4.43,4.83-7.66,8.58-11.14,12.08-16.83,16.93-33.74,33.79-50.62,50.67-1.35,1.35-2.5,3.3-4.13,3.9-8.4,3.09-8.78,9.95-9.73,17.44-3.09,24.27-25.84,42.34-50.68,41-23.61-1.27-44.22-21.79-45.41-45.21-1.28-25.05,16.46-48.16,40.83-50.58,9.46-.93,13.82-5.68,19.56-11.75,19.02-20.11,38.95-39.37,58.56-58.92,1.49-1.48,3.24-2.69,5.31-4.38-10.47-10.46-20.31-20.27-30.14-30.1-12.19-12.2-12.16-22.78.09-35.02,2.84-2.84,5.63-5.72,8.52-8.5,4.29-4.14,6.94-4.2,11.23-.05,4.81,4.64,9.5,9.41,14.19,14.17,4.68,4.76,9.3,9.58,13.31,13.72,22.28-22.26,44.19-44.16,67.4-67.36-.81-.51-3.06-1.42-4.64-2.99-45.16-45.06-90.22-90.22-135.44-135.21-3.67-3.65-5.36-7.52-5.77-12.52-1.69-20.93-3.57-41.85-5.39-62.77-.57-6.48,2.11-9.13,8.68-8.56,21.11,1.84,42.25,3.43,63.31,5.68,3.97.42,8.52,2.54,11.35,5.34,45.28,44.93,90.33,90.09,135.41,135.23,1.62,1.61,2.94,3.51,4.81,5.76,2.14-2.02,3.64-3.37,5.07-4.79,45.39-45.37,90.81-90.7,136.09-136.18,3.65-3.66,7.55-5.24,12.58-5.64,20.55-1.61,41.08-3.47,61.62-5.33,7.62-.68,10.09,1.84,9.41,9.4-1.84,20.15-3.65,40.31-5.18,60.49-.43,5.8-2.19,10.32-6.47,14.58-45.12,44.83-90.03,89.86-135.04,134.8-1.47,1.46-3.37,2.49-4.65,3.42,22.77,22.68,44.63,44.46,67.47,67.22,2.74-2.98,6.09-6.81,9.63-10.43,6.01-6.15,12.17-12.14,18.21-18.27,3.68-3.73,7.19-3.72,10.84.04,3.99,4.11,8.22,8,12.08,12.22,7.82,8.55,7.6,20.3-.7,28.89-9.03,9.33-18.3,18.44-27.54,27.56-1.49,1.47-3.38,2.52-6.46,4.75,3.13,2.31,5.16,3.45,6.76,5.03,18.95,18.87,37.84,37.79,56.73,56.71,1.49,1.49,3.66,2.78,4.25,4.58,2.65,8.19,9.23,8.07,16.05,8.84,24.12,2.73,42.51,24.52,41.68,48.8Z"/>
    </g>
  </g>
</svg>