<?xml version="1.0" encoding="UTF-8"?>
<svg id="Layer_2" xmlns="http://www.w3.org/2000/svg" viewBox="0 0 368.9 331.26">
  <defs>
    <style>
      .cls-1 {
        fill: #02216f;
      }
    </style>
  </defs>
  <g id="Layer_1-2" data-name="Layer_1">
    <g>
      <path class="cls-1" d="M227.45,237.93c-14.54-14.57-28.74-28.79-42.66-42.73-14.13,14.15-28.4,28.44-43.57,43.62,2.28,1.98,5.17,4.3,7.85,6.85,3.8,3.62,7.44,7.41,11.17,11.1,2.42,2.4,2.46,4.71-.03,7.1-2.43,2.34-4.75,4.79-7.18,7.14-6.14,5.95-13.89,6.01-20.02.03-6-5.85-11.88-11.81-17.76-17.77-.96-.97-1.63-2.23-2.83-3.93-2.9,3.16-5.01,5.62-7.29,7.91-11.02,11.08-22.08,22.11-33.13,33.16-.88.88-1.63,2.16-2.7,2.55-5.49,2.02-5.74,6.51-6.37,11.41-2.02,15.88-16.91,27.71-33.17,26.83-15.45-.83-28.94-14.26-29.72-29.59-.83-16.39,10.78-31.51,26.72-33.1,6.19-.61,9.04-3.72,12.8-7.69,12.45-13.16,25.49-25.77,38.32-38.56.97-.97,2.12-1.76,3.47-2.86-6.85-6.85-13.29-13.27-19.72-19.7-7.98-7.98-7.96-14.9.06-22.92,1.86-1.86,3.69-3.74,5.57-5.56,2.81-2.71,4.54-2.75,7.35-.03,3.15,3.04,6.21,6.16,9.28,9.28,3.06,3.11,6.09,6.27,8.71,8.98,14.58-14.57,28.92-28.9,44.11-44.08-.53-.33-2-.93-3.04-1.96-29.56-29.48-59.04-59.04-88.64-88.48-2.4-2.39-3.51-4.93-3.77-8.2-1.11-13.7-2.34-27.39-3.53-41.08-.37-4.24,1.38-5.98,5.68-5.6,13.82,1.2,27.65,2.24,41.43,3.71,2.59.28,5.57,1.66,7.42,3.5,29.64,29.4,59.12,58.96,88.62,88.5,1.06,1.06,1.93,2.3,3.14,3.77,1.4-1.32,2.39-2.2,3.32-3.14,29.7-29.69,59.43-59.36,89.06-89.12,2.39-2.4,4.94-3.43,8.23-3.69,13.45-1.06,26.89-2.27,40.33-3.49,4.99-.45,6.61,1.2,6.16,6.15-1.2,13.19-2.39,26.38-3.38,39.58-.29,3.8-1.43,6.76-4.24,9.54-29.53,29.34-58.92,58.81-88.37,88.22-.96.96-2.2,1.63-3.04,2.24,14.9,14.85,29.2,29.1,44.15,43.99,1.8-1.95,3.99-4.45,6.31-6.83,3.93-4.02,7.96-7.94,11.91-11.95,2.41-2.45,4.71-2.44,7.1.02,2.61,2.69,5.38,5.23,7.91,8,5.12,5.59,4.97,13.28-.46,18.9-5.91,6.11-11.97,12.07-18.02,18.04-.97.96-2.21,1.65-4.23,3.11,2.05,1.51,3.38,2.26,4.42,3.29,12.4,12.34,24.76,24.73,37.13,37.11.97.97,2.4,1.82,2.78,3,1.74,5.36,6.05,5.28,10.5,5.79,15.79,1.79,27.82,16.05,27.28,31.94-.57,16.57-13.65,30.14-29.86,30.98-16.19.84-31.58-11.18-32.86-27.01-.5-6.19-3.75-8.77-7.57-12.41-13.13-12.49-25.76-25.5-38.55-38.33-.97-.97-1.78-2.1-3.13-3.7-2.56,2.7-4.72,5.05-6.96,7.32-4.57,4.62-9.14,9.24-13.79,13.78-6.31,6.16-14.04,6.16-20.3.08-2.24-2.18-4.44-4.4-6.63-6.63-3.26-3.32-3.25-4.72.12-8.11,5.2-5.23,10.43-10.43,15.63-15.65.87-.87,1.68-1.78,2.47-2.62ZM90.3,17c-.96,7.82-1.72,15.36-2.9,22.84-.44,2.78.11,4.56,2.11,6.56,49.45,49.34,98.84,98.74,148.24,148.13.94.94,1.95,1.83,2.97,2.78,6.67-3.69,13.08-7.23,19.27-10.66-56.54-56.53-112.9-112.88-169.69-169.65ZM278.69,17.57c-29.32,29.33-58.57,58.58-87.24,87.26,4.63,4.64,9.62,9.64,14.91,14.95.6-.69,1.43-1.79,2.39-2.76,22.78-22.81,45.51-45.66,68.44-68.32,3.36-3.32,5.2-6.28,4.15-11.27-1.39-6.64-1.84-13.47-2.65-19.86ZM7.95,299.5c-.01,13.18,10.56,23.9,23.65,23.99,12.76.09,23.94-10.97,24.05-23.78.11-13.26-10.67-24.03-24-23.99-13.29.03-23.69,10.47-23.7,23.78ZM313.3,299.53c-.02,12.89,10.92,23.92,23.79,23.97,12.81.06,24.26-11.4,24.16-24.17-.1-12.79-11.26-23.78-24.1-23.73-12.83.05-23.83,11.08-23.85,23.94ZM298.61,179.21c-20.79,20.78-41.3,41.29-62.06,62.04,1.88,1.56,4.01,3.46,6.26,5.18,2.78,2.13,5.02,1.9,7.71-.84,16.1-16.38,32.26-32.7,48.7-48.73,8.97-8.75,7.37-10.22-.65-17.67-.09-.08-.22-.11.03,0ZM131.92,241.1c-20.62-20.65-41.11-41.17-62.03-62.11-.54.69-1.3,1.86-2.27,2.83-5.53,5.6-5.55,7.27.09,12.91,15.98,15.99,31.96,31.97,47.94,47.95,6.74,6.74,7.88,6.74,14.84-.04.71-.69,1.34-1.45,1.42-1.54ZM45.84,8.14c1.12,12.74,2.19,24.86,3.28,37.29,10.3-1.28,20.14-2.51,30.22-3.77,1.27-10.14,2.51-20.07,3.79-30.28-12.58-1.09-24.7-2.15-37.29-3.24ZM323.11,8.15c-12.71,1.12-24.84,2.19-37.29,3.29,1.3,10.28,2.55,20.23,3.81,30.22,10.24,1.27,20.07,2.49,30.23,3.75,1.1-12.54,2.16-24.66,3.26-37.26ZM114.2,210.1c10.14-10.06,20.19-20.05,30.39-30.17-4.38-5.08-8.99-10.44-13.03-15.13-10.63,10.62-21.1,21.07-31.29,31.25,4.55,4.58,9.45,9.53,13.94,14.04ZM71.81,239.06c-3.45,3.55-6.97,7.06-10.32,10.73-.6.65-.97,2.11-.66,2.89,2.03,5.3,5.27,9.72,10.25,13.11,4.09-4.39,8.03-8.63,11.86-12.74-3.4-4.28-7.09-8.92-11.12-13.99ZM298.02,265.67c4.83-3.38,8.06-7.71,10.07-12.92.31-.8.01-2.26-.57-2.9-3.44-3.75-7.04-7.35-10.39-10.8-3.99,5.05-7.67,9.7-10.91,13.79,3.87,4.21,7.8,8.48,11.81,12.84ZM314.77,258.5c-3.2,4.06-6.71,8.5-10.14,12.84,2.43,2.62,5.01,5.41,7.22,7.79,4.94-3.51,9.54-6.78,14.82-10.53-3.99-3.38-8.04-6.82-11.9-10.1ZM42.5,268.69c5.26,3.8,9.83,7.1,14.34,10.35,2.47-2.49,5.14-5.19,7.53-7.6-3.57-4.53-7.13-9.05-10.06-12.76-3.86,3.27-7.9,6.7-11.82,10.01ZM88.13,247.46c.46-.26.92-.52,1.38-.78,3.33-7.66-1.61-14.27-3.22-21.7-2.58,2.11-4.83,4.39-6.83,6.89-.51.64-.64,2.23-.2,2.89,2.84,4.31,5.89,8.48,8.88,12.7ZM280.57,247.85c3.3-4.69,6.38-8.97,9.31-13.34.37-.54.34-1.88-.07-2.33-2.26-2.5-4.7-4.84-7.33-7.49-4.91,16.38-5.03,17.56-1.91,23.16Z"/>
      <path class="cls-1" d="M31.77,313.26c-7.47.03-13.69-6.26-13.75-13.9-.05-7.26,6.26-13.54,13.65-13.57,7.42-.03,13.74,6.17,13.73,13.47,0,7.68-6.13,13.97-13.64,14Z"/>
      <path class="cls-1" d="M337.17,313.26c-7.51-.03-13.62-6.31-13.61-14,0-7.33,6.3-13.5,13.72-13.46,7.42.04,13.68,6.28,13.63,13.58-.06,7.67-6.24,13.92-13.74,13.89Z"/>
    </g>
  </g>
</svg>